<svg width="9" height="9" viewBox="0 0 9 9" fill="none" xmlns="http://www.w3.org/2000/svg">
<path d="M7.28423 1.71809C6.91926 1.34951 6.48505 1.05667 6.00656 0.856398C5.52807 0.656129 5.01473 0.552375 4.49602 0.551098C3.97731 0.549822 3.46346 0.651047 2.98399 0.848959C2.50452 1.04687 2.06888 1.33757 1.7021 1.70435C1.33531 2.07114 1.04461 2.50678 0.846701 2.98625C0.648789 3.46572 0.547563 3.97957 0.54884 4.49828C0.550117 5.01699 0.65387 5.53033 0.85414 6.00882C1.05441 6.48731 1.34725 6.92152 1.71583 7.28649C2.08081 7.65508 2.51501 7.94791 2.9935 8.14818C3.47199 8.34845 3.98534 8.45221 4.50405 8.45349C5.02276 8.45476 5.53661 8.35354 6.01608 8.15562C6.49555 7.95771 6.93119 7.66701 7.29797 7.30023C7.66476 6.93345 7.95545 6.49781 8.15337 6.01834C8.35128 5.53887 8.4525 5.02502 8.45123 4.50631C8.44995 3.9876 8.3462 3.47425 8.14593 2.99576C7.94566 2.51727 7.65282 2.08307 7.28423 1.71809V1.71809ZM1.12503 4.50229C1.12491 4.20359 1.16451 3.9062 1.24281 3.61794C1.37183 3.89567 1.55921 4.13561 1.68665 4.42055C1.85136 4.78688 2.29363 4.68528 2.48892 5.00626C2.66224 5.2912 2.47714 5.65155 2.60687 5.94967C2.70109 6.16606 2.92328 6.21335 3.07656 6.37155C3.23318 6.53116 3.22984 6.74983 3.25374 6.95796C3.28072 7.20249 3.32448 7.44488 3.3847 7.68341C3.3847 7.68516 3.3847 7.6871 3.38611 7.68885C2.07074 7.2269 1.12503 5.97305 1.12503 4.50229ZM4.50003 7.87729C4.31155 7.87723 4.1234 7.86147 3.93753 7.83018C3.93947 7.78255 3.94035 7.73807 3.94509 7.70714C3.98781 7.42764 4.12773 7.1543 4.31652 6.94512C4.50302 6.73876 4.75861 6.59919 4.91611 6.36505C5.07044 6.13653 5.11667 5.82891 5.05304 5.5619C4.95935 5.16745 4.42339 5.03579 4.13441 4.82186C3.9683 4.69882 3.82046 4.50862 3.60232 4.49315C3.50177 4.48612 3.41757 4.50774 3.3179 4.48208C3.2265 4.45835 3.15478 4.40913 3.0574 4.42196C2.87546 4.44587 2.76068 4.64028 2.56521 4.61391C2.37976 4.58913 2.18869 4.37204 2.1465 4.19538C2.09236 3.96827 2.27201 3.89462 2.46449 3.8744C2.54482 3.86596 2.63499 3.85682 2.71216 3.88635C2.81376 3.92397 2.86175 4.02346 2.95298 4.07374C3.12402 4.1676 3.15865 4.01766 3.13246 3.86579C3.09326 3.63833 3.04755 3.54569 3.2504 3.38907C3.39103 3.28114 3.51126 3.20309 3.48876 3.00921C3.4754 2.8953 3.413 2.8438 3.47119 2.73042C3.51531 2.64411 3.63642 2.56624 3.71535 2.51473C3.91908 2.38184 4.5881 2.39169 4.31476 2.01973C4.23443 1.91057 4.08624 1.71546 3.94562 1.68874C3.76984 1.65551 3.69179 1.85169 3.56927 1.93817C3.44271 2.02764 3.19626 2.12924 3.06953 1.99091C2.89902 1.80475 3.18255 1.74376 3.24531 1.61368C3.27431 1.55303 3.24531 1.46883 3.19644 1.38956C3.25984 1.36284 3.32429 1.33805 3.3898 1.3152C3.43085 1.34552 3.47955 1.36379 3.53042 1.36794C3.64802 1.37567 3.75894 1.31204 3.8616 1.39219C3.9755 1.48008 4.05759 1.59118 4.20876 1.6186C4.35501 1.64514 4.50988 1.55989 4.54609 1.41012C4.56806 1.31907 4.54609 1.22292 4.52499 1.12887C5.18242 1.13266 5.82424 1.32954 6.3707 1.69507C6.33554 1.68171 6.29353 1.68329 6.24167 1.70737C6.13497 1.75694 5.9838 1.88315 5.97132 2.00831C5.95708 2.15034 6.16662 2.17038 6.26611 2.17038C6.41552 2.17038 6.56687 2.10358 6.51871 1.93096C6.49779 1.85608 6.46931 1.77821 6.42343 1.7311C6.53372 1.80763 6.63937 1.89063 6.73984 1.97966C6.73826 1.98124 6.73667 1.98264 6.73509 1.9844C6.63384 2.08987 6.51624 2.17337 6.44699 2.30169C6.39812 2.39204 6.3431 2.43493 6.24414 2.45831C6.18964 2.47114 6.12742 2.47589 6.08171 2.51245C5.95445 2.61264 6.02687 2.85346 6.14746 2.92571C6.29986 3.01694 6.52591 2.97405 6.64087 2.8438C6.7307 2.74184 6.78361 2.56483 6.94515 2.56501C7.01627 2.56486 7.08459 2.59271 7.13535 2.64253C7.20214 2.71178 7.18896 2.77647 7.2032 2.86296C7.22833 3.01659 7.36386 2.93327 7.4463 2.85575C7.5064 2.9627 7.56062 3.07284 7.60873 3.18569C7.51802 3.3163 7.44595 3.45868 7.22781 3.30645C7.0972 3.21522 7.01687 3.08286 6.85287 3.04173C6.7096 3.00657 6.56283 3.04313 6.42132 3.06756C6.26048 3.09551 6.06976 3.10782 5.94777 3.22964C5.82982 3.34706 5.76742 3.50421 5.64191 3.62215C5.39915 3.85067 5.29667 4.1001 5.45382 4.42319C5.60499 4.7338 5.92123 4.90237 6.26242 4.88022C6.59763 4.8579 6.94585 4.66348 6.93619 5.15057C6.93267 5.32301 6.96871 5.44237 7.02162 5.60251C7.07066 5.75016 7.06732 5.89325 7.07857 6.04565C7.08926 6.22411 7.11717 6.40113 7.16189 6.57423C6.84682 6.97989 6.4432 7.30818 5.98186 7.53402C5.52053 7.75985 5.01368 7.87727 4.50003 7.87729Z" fill="#5F5F5F"/>
</svg>
