<svg width="80" height="33" viewBox="0 0 80 33" fill="none" xmlns="http://www.w3.org/2000/svg">
<path d="M21.008 0.499997C21.82 0.499997 22.716 0.919998 23.696 1.76C24.704 2.6 25.208 3.286 25.208 3.818C25.208 5.582 24.788 8.648 23.948 13.016C23.136 17.356 22.086 21.514 20.798 25.49C19.51 29.466 18.348 31.454 17.312 31.454C16.892 31.454 16.346 31.23 15.674 30.782C15.002 30.306 14.554 29.76 14.33 29.144C14.106 28.5 13.672 27.184 13.028 25.196C11.544 20.632 10.144 16.852 8.828 13.856C8.632 14.696 8.366 15.886 8.03 17.426C7.722 18.966 7.47 20.184 7.274 21.08C7.078 21.948 6.84 23.012 6.56 24.272C6.28 25.504 6.028 26.484 5.804 27.212C5.608 27.94 5.384 28.668 5.132 29.396C4.684 30.768 4.264 31.454 3.872 31.454C3.312 31.454 2.584 30.95 1.688 29.942C0.792 28.906 0.344 28.024 0.344 27.296C0.344 26.54 1.142 22.634 2.738 15.578C4.362 8.522 5.244 4.098 5.384 2.306C5.468 1.242 5.79 0.709997 6.35 0.709997C6.826 0.709997 7.428 0.989998 8.156 1.55C8.912 2.11 9.556 2.796 10.088 3.608C10.648 4.392 11.642 6.982 13.07 11.378C14.498 15.774 15.632 18.924 16.472 20.828C17.564 17.58 18.572 12.68 19.496 6.128C19.86 3.524 20.098 1.942 20.21 1.382C20.322 0.793998 20.588 0.499997 21.008 0.499997ZM46.1181 25.406C47.9101 26.694 49.6321 27.338 51.2841 27.338C52.9641 27.338 54.0841 27.436 54.6441 27.632C55.2041 27.8 55.4841 28.15 55.4841 28.682C55.4841 29.606 55.0221 30.334 54.0981 30.866C53.1741 31.37 51.8721 31.622 50.1921 31.622C47.5321 31.622 44.8301 30.404 42.0861 27.968C37.4661 30.74 34.0081 32.126 31.7121 32.126C30.3961 32.126 29.0521 31.398 27.6801 29.942C26.3081 28.486 25.6221 27.226 25.6221 26.162C25.6221 25.238 26.4481 23.992 28.1001 22.424C29.5001 21.08 30.7881 19.918 31.9641 18.938C33.1681 17.93 33.8261 17.37 33.9381 17.258C34.0781 17.146 34.2041 17.048 34.3161 16.964C33.0841 14.164 32.4401 11.658 32.3841 9.446C32.3561 7.206 33.2101 5.33 34.9461 3.818C36.6821 2.278 38.8661 1.508 41.4981 1.508C43.7661 1.508 45.3761 2.558 46.3281 4.658C46.8041 5.75 47.0421 6.814 47.0421 7.85C47.0421 10.538 44.8161 13.954 40.3641 18.098C40.8401 19.106 41.4841 20.212 42.2961 21.416C43.2761 20.772 44.8161 19.722 46.9161 18.266C50.6681 15.634 52.7681 14.318 53.2161 14.318C54.5881 14.318 55.2741 15.074 55.2741 16.586C55.2741 17.342 54.3921 18.546 52.6281 20.198C50.8921 21.85 48.7221 23.586 46.1181 25.406ZM41.1621 8.816C41.1061 7.332 40.6301 6.59 39.7341 6.59C39.2581 6.59 38.8801 6.884 38.6001 7.472C38.0401 8.564 38.0401 10.426 38.6001 13.058C40.3081 11.294 41.1621 9.88 41.1621 8.816ZM31.6281 27.086C32.7201 27.086 34.9741 26.036 38.3901 23.936C37.9701 23.404 37.3961 22.578 36.6681 21.458C33.7561 23.978 32.1461 25.462 31.8381 25.91C31.5301 26.33 31.3761 26.638 31.3761 26.834C31.3761 27.002 31.4601 27.086 31.6281 27.086ZM67.6697 0.0799979C68.3697 0.0799979 69.2237 0.541998 70.2317 1.466C71.2397 2.39 71.7437 3.342 71.7437 4.322C71.7437 7.01 70.3577 12.218 67.5857 19.946C66.6337 22.662 66.1577 24.552 66.1577 25.616C66.1577 25.756 66.1857 25.84 66.2417 25.868C66.2977 25.896 66.8157 25.91 67.7957 25.91C68.7757 25.91 70.1197 25.77 71.8277 25.49C73.5637 25.182 74.9637 24.888 76.0277 24.608C77.1197 24.328 77.7637 24.188 77.9597 24.188C78.6597 24.188 79.0097 24.636 79.0097 25.532C79.0097 27.296 77.6657 28.724 74.9777 29.816C72.3177 30.88 69.2237 31.412 65.6957 31.412C64.3237 31.412 63.0637 30.908 61.9157 29.9C60.7957 28.864 60.2357 27.73 60.2357 26.498C60.2357 25.266 61.2717 21.29 63.3437 14.57C65.4157 7.822 66.4517 3.454 66.4517 1.466C66.4517 0.541998 66.8577 0.0799979 67.6697 0.0799979Z" fill="white"/>
</svg>
