<svg viewBox="0 0 31 28" fill="none" xmlns="http://www.w3.org/2000/svg">
<path d="M28.7054 0.00260814C28.3047 0.021346 27.9274 0.138458 27.592 0.269623H27.5873C27.2472 0.405473 25.6308 1.08941 23.1757 2.12468C20.7207 3.16463 17.5343 4.51376 14.3712 5.85352C8.05426 8.52836 1.84449 11.161 1.84449 11.161L1.91903 11.1329C1.91903 11.1329 1.49045 11.2735 1.04323 11.5826C0.814965 11.7325 0.563406 11.9387 0.344457 12.2619C0.125508 12.5851 -0.0515154 13.0817 0.0137041 13.5923C0.12085 14.4589 0.679869 14.9789 1.0805 15.2646C1.48579 15.5551 1.87244 15.6909 1.87244 15.6909H1.88176L7.70488 17.6631C7.96575 18.5063 9.47976 23.5093 9.84312 24.6617C10.0574 25.3503 10.267 25.7813 10.5279 26.1092C10.6537 26.2778 10.8028 26.4184 10.9798 26.5308C11.0497 26.573 11.1242 26.6058 11.1987 26.6339C11.222 26.6479 11.2453 26.6526 11.2733 26.6573L11.2127 26.6432C11.2314 26.6479 11.2453 26.662 11.2593 26.6667C11.3059 26.6807 11.3385 26.6854 11.3991 26.6948C12.3214 26.9758 13.0621 26.3996 13.0621 26.3996L13.1041 26.3668L16.542 23.2189L22.3046 27.6644L22.435 27.7207C23.6369 28.25 24.8528 27.9549 25.4957 27.4349C26.1432 26.9102 26.3947 26.2404 26.3947 26.2404L26.4367 26.1326L30.8902 3.19274C31.016 2.62592 31.0486 2.09657 30.9088 1.58128C30.7691 1.06598 30.4104 0.583483 29.9771 0.325837C29.5392 0.0635061 29.106 -0.0161298 28.7054 0.00260814ZM28.5842 2.46196C28.5796 2.53691 28.5936 2.52754 28.5609 2.67276V2.68681L24.1494 25.3878C24.1307 25.4206 24.0981 25.4908 24.0096 25.5611C23.9164 25.6361 23.8419 25.6829 23.4552 25.5283L16.4069 20.0943L12.1491 23.9965L13.0435 18.2533C13.0435 18.2533 24.0841 7.90532 24.5593 7.4603C25.0345 7.01527 24.8761 6.92158 24.8761 6.92158C24.9087 6.37818 24.1587 6.76231 24.1587 6.76231L9.63815 15.808L9.63349 15.7846L2.6737 13.4283V13.4236C2.66904 13.4236 2.65973 13.419 2.65507 13.419C2.65973 13.419 2.69234 13.4049 2.69234 13.4049L2.72961 13.3862L2.76687 13.3721C2.76687 13.3721 8.9813 10.7394 15.2982 8.06459C18.4613 6.72483 21.6477 5.3757 24.0981 4.33575C26.5485 3.30048 28.3606 2.54159 28.4631 2.49943C28.5609 2.46196 28.5144 2.46196 28.5842 2.46196Z" fill="white"/>
</svg>
