<svg  viewBox="0 0 24 28" fill="none" xmlns="http://www.w3.org/2000/svg">
<path d="M21.0113 5.9882C20.8244 5.89053 20.6424 5.78345 20.4661 5.66738C19.9534 5.32467 19.4834 4.92084 19.0661 4.46461C18.0219 3.25659 17.632 2.03107 17.4883 1.17302H17.4941C17.3741 0.46081 17.4237 0 17.4312 0H12.6755V18.5946C12.6755 18.8442 12.6755 19.091 12.6652 19.3348C12.6652 19.3651 12.6623 19.3931 12.6605 19.4258C12.6605 19.4392 12.6605 19.4532 12.6577 19.4672C12.6577 19.4707 12.6577 19.4742 12.6577 19.4777C12.6075 20.1449 12.396 20.7894 12.0417 21.3545C11.6875 21.9196 11.2013 22.388 10.6259 22.7185C10.0263 23.0635 9.34812 23.2444 8.65825 23.2435C6.44251 23.2435 4.64672 21.4166 4.64672 19.1604C4.64672 16.9042 6.44251 15.0772 8.65825 15.0772C9.07768 15.0769 9.49453 15.1436 9.89332 15.275L9.89909 10.3787C8.68845 10.2206 7.45855 10.3179 6.28696 10.6645C5.11538 11.011 4.02754 11.5993 3.09207 12.3923C2.27238 13.1124 1.58326 13.9717 1.05573 14.9314C0.85498 15.2814 0.0975549 16.6877 0.00583319 18.9702C-0.0518534 20.2657 0.332916 21.6079 0.51636 22.1626V22.1743C0.631733 22.501 1.0788 23.6157 1.80739 24.5554C2.39489 25.3091 3.089 25.9713 3.86737 26.5205V26.5088L3.87891 26.5205C6.18118 28.1024 8.73382 27.9986 8.73382 27.9986C9.1757 27.9805 10.6559 27.9986 12.3369 27.1931C14.2014 26.3 15.2628 24.9695 15.2628 24.9695C15.9409 24.1745 16.4801 23.2685 16.8572 22.2904C17.2876 21.1465 17.4312 19.7746 17.4312 19.2263V9.36145C17.4889 9.39645 18.2573 9.91034 18.2573 9.91034C18.2573 9.91034 19.3643 10.6278 21.0914 11.095C22.3305 11.4275 24 11.4975 24 11.4975V6.72375C23.4151 6.78791 22.2273 6.60125 21.0113 5.9882Z" fill="white"/>
</svg>
