<svg width="37" height="23" viewBox="0 0 37 23" fill="none" xmlns="http://www.w3.org/2000/svg">
<path d="M35.2891 2.28097C34.8876 3.54358 34.3462 4.64261 33.6681 5.64051L33.6963 5.59589C33.0301 6.70632 32.2344 7.98926 31.3094 9.44471C30.5162 10.5938 30.0964 11.1887 30.0498 11.2293C29.8445 11.4866 29.7018 11.8019 29.6527 12.1484L29.6512 12.1588C29.6914 12.4741 29.8371 12.7492 30.0498 12.9545L30.6446 13.6177C33.8272 16.8885 35.6173 19.1431 36.0148 20.3814C36.0669 20.5182 36.0966 20.6759 36.0966 20.841C36.0966 21.1295 36.0044 21.3957 35.8483 21.6143L35.8513 21.6098C35.5895 21.879 35.2237 22.0456 34.8191 22.0456C34.7745 22.0456 34.7284 22.0441 34.6853 22.0396H34.6913H30.7785C30.777 22.0396 30.774 22.0396 30.771 22.0396C30.2699 22.0396 29.8088 21.8641 29.4475 21.5727L29.4519 21.5756C28.9255 21.1429 28.457 20.6744 28.0376 20.1658L28.0242 20.1479C27.3391 19.3736 26.7314 18.7217 26.2009 18.1923C24.4342 16.5128 23.1304 15.673 22.2897 15.673C22.2584 15.67 22.2227 15.6686 22.1856 15.6686C21.9402 15.6686 21.7112 15.7444 21.5223 15.8738L21.5267 15.8708C21.3721 16.0641 21.2784 16.314 21.2784 16.5832C21.2784 16.6367 21.2814 16.6873 21.2888 16.7393V16.7334C21.2486 17.2004 21.2248 17.7432 21.2248 18.2919C21.2248 18.4689 21.2278 18.6444 21.2323 18.8199V18.7946V20.5183C21.2472 20.5881 21.2561 20.6685 21.2561 20.7502C21.2561 21.1101 21.0925 21.4314 20.8367 21.644L20.8352 21.6455C20.2597 21.9088 19.5875 22.0634 18.8781 22.0634C18.7264 22.0634 18.5777 22.056 18.4304 22.0426L18.4498 22.0441C16.1089 21.9995 13.9377 21.3139 12.0921 20.1584L12.1441 20.1881C9.897 18.8229 8.03505 17.0457 6.61628 14.9458L6.57613 14.8833C5.22874 13.0957 3.97207 11.0761 2.9013 8.94651L2.7972 8.71748C2.1711 7.52476 1.52269 6.0584 0.963509 4.5504L0.874278 4.27527C0.64674 3.59712 0.481663 2.80892 0.413253 1.99245L0.410278 1.95527C0.410278 1.20375 0.852466 0.827993 1.73684 0.827993H5.64812C5.68382 0.825018 5.72546 0.823531 5.76859 0.823531C6.13741 0.823531 6.47797 0.949941 6.74715 1.16261L6.74418 1.15963C7.04161 1.48533 7.26171 1.88538 7.37028 2.33153L7.37474 2.34938C8.09453 4.38235 8.85746 6.08963 9.73489 7.72553L9.63525 7.52179C10.3521 8.96435 11.1447 10.2061 12.0489 11.3528L12.0147 11.3067C12.8079 12.2803 13.4266 12.7671 13.8707 12.7671C13.8841 12.7686 13.9005 12.7686 13.9183 12.7686C14.1384 12.7686 14.3303 12.6496 14.4344 12.4711L14.4359 12.4681C14.5459 12.1856 14.6099 11.8569 14.6099 11.5149C14.6099 11.442 14.6069 11.3691 14.6009 11.2977V11.3067V5.53789C14.5697 4.85825 14.4032 4.22322 14.125 3.65363L14.1369 3.68189C13.9525 3.28927 13.7309 2.9502 13.4677 2.6483L13.4722 2.65425C13.2283 2.41035 13.0617 2.09061 13.0097 1.73368L13.0082 1.72476C13.0082 1.47194 13.1242 1.2444 13.3056 1.09568L13.3071 1.0942C13.487 0.929121 13.728 0.82948 13.9912 0.82948H14.0031H20.1689C20.2017 0.825018 20.2388 0.823531 20.2775 0.823531C20.5675 0.823531 20.8278 0.954403 21.0003 1.15963L21.0018 1.16112C21.1549 1.44071 21.2457 1.77533 21.2457 2.12927C21.2457 2.18579 21.2427 2.24081 21.2382 2.29584V2.2884V9.98158C21.2353 10.0173 21.2338 10.0589 21.2338 10.1006C21.2338 10.3742 21.3096 10.6315 21.4405 10.8501L21.4375 10.8441C21.5461 11.0048 21.7275 11.1089 21.9327 11.1089H21.9342C22.196 11.091 22.4339 11.0048 22.6347 10.8679L22.6302 10.8709C23.0347 10.5928 23.3827 10.276 23.6846 9.91763L23.6906 9.9102C24.5933 8.88999 25.4261 7.76271 26.1519 6.56404L26.2099 6.45994C26.7215 5.61225 27.2747 4.56825 27.7759 3.49599L27.8681 3.27738L28.5314 1.95081C28.7619 1.28753 29.3805 0.820557 30.1078 0.820557C30.136 0.820557 30.1643 0.820557 30.1925 0.822044H30.1881H34.1008C35.1577 0.822044 35.5543 1.30835 35.2906 2.28097H35.2891Z" fill="white"/>
</svg>
